<svg xmlns="http://www.w3.org/2000/svg" width="1200" height="300" viewBox="0 0 1200 300" preserveAspectRatio="xMidYMid slice">
  <defs>
    <linearGradient id="g" x1="0" x2="0" y1="0" y2="1">
      <stop offset="0" stop-color="#0a0f1c"/>
      <stop offset="1" stop-color="#000000"/>
    </linearGradient>
    <radialGradient id="star" cx="50%" cy="50%" r="50%">
      <stop offset="0%" stop-color="#ffffff" stop-opacity="1"/>
      <stop offset="100%" stop-color="#ffffff" stop-opacity="0"/>
    </radialGradient>
  </defs>

  <!-- background -->
  <rect width="1200" height="300" fill="url(#g)" />

  <!-- stars -->
  <g opacity="0.85">
    <circle cx="50" cy="40" r="1" fill="#ffffff" />
    <circle cx="120" cy="90" r="1.2" fill="#ffffff" />
    <circle cx="300" cy="30" r="1.4" fill="#ffffff" />
    <circle cx="500" cy="70" r="1" fill="#ffffff" />
    <circle cx="700" cy="20" r="1.3" fill="#ffffff" />
    <circle cx="900" cy="100" r="1" fill="#ffffff" />
    <circle cx="1100" cy="50" r="1.1" fill="#ffffff" />
    <circle cx="250" cy="200" r="1" fill="#ffffff" />
    <circle cx="800" cy="160" r="1.2" fill="#ffffff" />
    <circle cx="1000" cy="250" r="1.3" fill="#ffffff" />
  </g>

  <!-- glowing stars -->
  <g opacity="0.4">
    <circle cx="400" cy="60" r="4" fill="url(#star)" />
    <circle cx="750" cy="40" r="3.5" fill="url(#star)" />
    <circle cx="950" cy="120" r="5" fill="url(#star)" />
  </g>

  <!-- subtle nebula curve -->
  <path d="M0,180 Q300,220 600,160 T1200,180 L1200,300 L0,300 Z" fill="#4c1d95" opacity="0.1"/>

  <!-- text -->
  <text x="60" y="150" fill="#ffffff" font-family="Segoe UI, Roboto, sans-serif" font-weight="700" font-size="38">👋 Hey, I'm Num#PY 😹</text>
  <text x="60" y="190" fill="#a5b4fc" font-family="Segoe UI, Roboto, sans-serif" font-size="18">CodeQuest819 · He/Him · Developer • Designer • Tech Explorer</text>
</svg>
